<svg xmlns="http://www.w3.org/2000/svg" xmlns:xlink="http://www.w3.org/1999/xlink" width="162" zoomAndPan="magnify" viewBox="0 0 121.5 31.5" height="42" preserveAspectRatio="xMidYMid meet" version="1.0"><defs><clipPath id="8b115d78bf"><path d="M 1 0 L 21 0 L 21 29.617188 L 1 29.617188 Z M 1 0 " clip-rule="nonzero"/></clipPath><clipPath id="6979a0ce67"><path d="M 0.703125 0 L 21.460938 0 L 21.460938 29.617188 L 0.703125 29.617188 Z M 0.703125 0 " clip-rule="nonzero"/></clipPath><clipPath id="13b6cf4288"><path d="M 19 1 L 120.304688 1 L 120.304688 27 L 19 27 Z M 19 1 " clip-rule="nonzero"/></clipPath></defs><g clip-path="url(#8b115d78bf)"><path fill="#9538ef" d="M 18.765625 29.183594 L 3.28125 29.183594 C 2.105469 29.183594 1.152344 28.230469 1.152344 27.054688 L 1.152344 2.574219 C 1.152344 1.398438 2.105469 0.445312 3.28125 0.445312 L 18.765625 0.445312 C 19.941406 0.445312 20.894531 1.398438 20.894531 2.574219 L 20.894531 27.054688 C 20.894531 28.230469 19.941406 29.183594 18.765625 29.183594 Z M 18.765625 29.183594 " fill-opacity="1" fill-rule="nonzero"/></g><g clip-path="url(#6979a0ce67)"><path fill="#ffffff" d="M 18.765625 29.628906 L 3.28125 29.628906 C 1.863281 29.628906 0.707031 28.472656 0.707031 27.054688 L 0.707031 2.574219 C 0.707031 1.15625 1.863281 0 3.28125 0 L 18.765625 0 C 20.183594 0 21.339844 1.15625 21.339844 2.574219 L 21.339844 27.054688 C 21.339844 28.472656 20.183594 29.628906 18.765625 29.628906 Z M 3.28125 0.890625 C 2.355469 0.890625 1.597656 1.644531 1.597656 2.574219 L 1.597656 27.054688 C 1.597656 27.980469 2.355469 28.738281 3.28125 28.738281 L 18.765625 28.738281 C 19.691406 28.738281 20.449219 27.980469 20.449219 27.054688 L 20.449219 2.574219 C 20.449219 1.648438 19.695312 0.890625 18.765625 0.890625 Z M 6.085938 26.71875 C 5.042969 26.71875 4.113281 26.449219 3.328125 25.90625 C 1.640625 24.738281 0.894531 22.464844 1.226562 19.511719 C 1.546875 16.652344 2.839844 13.46875 4.867188 10.542969 C 6.898438 7.617188 9.425781 5.292969 11.988281 3.992188 C 14.640625 2.644531 17.03125 2.550781 18.71875 3.71875 C 20.40625 4.890625 21.152344 7.160156 20.820312 10.117188 C 20.5 12.972656 19.207031 16.15625 17.179688 19.082031 C 15.152344 22.007812 12.621094 24.335938 10.058594 25.636719 C 8.636719 26.355469 7.289062 26.71875 6.085938 26.71875 Z M 15.957031 3.800781 C 14.898438 3.800781 13.6875 4.128906 12.394531 4.789062 C 9.960938 6.023438 7.546875 8.246094 5.601562 11.054688 C 3.65625 13.859375 2.414062 16.898438 2.113281 19.609375 C 1.820312 22.222656 2.429688 24.199219 3.835938 25.175781 C 5.242188 26.148438 7.308594 26.03125 9.652344 24.839844 C 12.085938 23.605469 14.5 21.378906 16.445312 18.574219 C 18.390625 15.769531 19.628906 12.730469 19.933594 10.019531 C 20.226562 7.40625 19.613281 5.429688 18.210938 4.453125 C 17.582031 4.015625 16.820312 3.800781 15.957031 3.800781 Z M 14.808594 8.59375 L 10.609375 9.71875 C 10.429688 9.765625 10.371094 9.992188 10.503906 10.121094 L 11.230469 10.851562 C 11.144531 10.914062 11.058594 10.988281 10.980469 11.066406 L 9.078125 12.96875 C 8.628906 13.417969 8.410156 14.007812 8.414062 14.597656 C 8.417969 15.191406 8.761719 15.671875 9.21875 16.125 L 12.863281 12.484375 L 13.574219 13.195312 C 13.707031 13.324219 13.929688 13.265625 13.976562 13.085938 L 15.101562 8.890625 C 15.148438 8.710938 14.984375 8.546875 14.808594 8.59375 Z M 7.238281 21.035156 L 11.4375 19.910156 C 11.617188 19.859375 11.675781 19.636719 11.546875 19.503906 L 10.816406 18.777344 C 10.902344 18.710938 10.988281 18.640625 11.066406 18.5625 L 12.96875 16.65625 C 13.417969 16.210938 13.636719 15.621094 13.632812 15.027344 C 13.628906 14.4375 13.285156 13.957031 12.828125 13.5 L 9.183594 17.144531 L 8.472656 16.433594 C 8.339844 16.300781 8.117188 16.363281 8.070312 16.542969 L 6.945312 20.738281 C 6.898438 20.917969 7.0625 21.082031 7.238281 21.035156 Z M 7.238281 21.035156 " fill-opacity="1" fill-rule="nonzero"/></g><path fill="#000000" d="M 9.21875 16.46875 L 9.046875 16.300781 C 8.640625 15.894531 8.175781 15.335938 8.171875 14.601562 C 8.164062 13.917969 8.425781 13.277344 8.90625 12.796875 L 10.808594 10.894531 C 10.828125 10.875 10.847656 10.851562 10.871094 10.835938 L 10.332031 10.292969 C 10.207031 10.171875 10.160156 9.996094 10.203125 9.828125 C 10.25 9.65625 10.378906 9.527344 10.546875 9.484375 L 14.746094 8.359375 C 14.914062 8.3125 15.089844 8.363281 15.214844 8.484375 C 15.335938 8.609375 15.382812 8.785156 15.339844 8.953125 L 14.214844 13.148438 C 14.167969 13.316406 14.039062 13.445312 13.871094 13.492188 C 13.703125 13.535156 13.527344 13.488281 13.402344 13.367188 L 12.863281 12.828125 Z M 14.867188 8.824219 L 10.671875 9.953125 L 11.601562 10.878906 L 11.375 11.046875 C 11.296875 11.101562 11.222656 11.167969 11.152344 11.238281 L 9.25 13.140625 C 8.863281 13.527344 8.652344 14.046875 8.65625 14.597656 C 8.660156 14.984375 8.832031 15.347656 9.222656 15.777344 L 12.863281 12.136719 L 13.746094 13.019531 Z M 7.175781 21.285156 C 7.050781 21.285156 6.925781 21.234375 6.835938 21.140625 C 6.710938 21.019531 6.664062 20.84375 6.710938 20.675781 L 7.835938 16.476562 C 7.878906 16.308594 8.007812 16.179688 8.175781 16.136719 C 8.347656 16.089844 8.519531 16.136719 8.644531 16.261719 L 9.183594 16.800781 L 12.828125 13.15625 L 13 13.328125 C 13.402344 13.734375 13.871094 14.292969 13.875 15.027344 C 13.882812 15.707031 13.621094 16.347656 13.140625 16.828125 L 11.238281 18.730469 C 11.21875 18.753906 11.199219 18.773438 11.175781 18.792969 L 11.714844 19.332031 C 11.839844 19.457031 11.886719 19.632812 11.839844 19.800781 C 11.796875 19.96875 11.667969 20.097656 11.5 20.144531 L 7.300781 21.269531 C 7.257812 21.277344 7.214844 21.285156 7.175781 21.285156 Z M 8.300781 16.605469 L 7.179688 20.800781 L 11.375 19.675781 L 10.445312 18.75 L 10.671875 18.582031 C 10.75 18.523438 10.824219 18.460938 10.894531 18.390625 L 12.796875 16.484375 C 13.183594 16.097656 13.394531 15.582031 13.390625 15.03125 C 13.386719 14.640625 13.214844 14.28125 12.824219 13.847656 L 9.183594 17.488281 Z M 8.300781 16.605469 " fill-opacity="1" fill-rule="nonzero"/><g clip-path="url(#13b6cf4288)"><path stroke-linecap="butt" transform="matrix(0.122869, 0, 0, 0.122869, 21.347308, 6.30117)" fill="none" stroke-linejoin="miter" d="M 80.595656 -11.289342 L 62.760321 25.748385 L 44.734234 -11.289342 L 15.421972 -11.289342 L 15.421972 133.809532 L 43.208216 133.809532 L 43.208216 48.702239 L 62.951073 89.173507 L 82.089882 49.49704 L 82.089882 133.809532 L 109.876125 133.809532 L 109.876125 -11.289342 Z M 196.286892 -11.09859 L 119.44553 -11.289342 L 119.44553 133.809532 L 196.286892 133.809532 L 196.286892 106.023289 L 147.263565 106.023289 L 147.263565 71.338172 L 178.864854 71.338172 L 178.864854 43.551928 L 147.263565 43.551928 L 147.263565 16.528693 L 196.286892 16.528693 Z M 271.061773 -11.289342 L 253.226438 25.748385 L 235.232143 -11.289342 L 205.888089 -11.289342 L 205.888089 133.809532 L 233.674333 133.809532 L 233.674333 48.702239 L 253.41719 89.173507 L 272.555999 49.49704 L 272.555999 133.809532 L 300.342242 133.809532 L 300.342242 -11.289342 Z M 386.753009 -11.09859 L 309.943439 -11.289342 L 309.943439 133.809532 L 386.753009 133.809532 L 386.753009 106.023289 L 337.729682 106.023289 L 337.729682 71.338172 L 369.362763 71.338172 L 369.362763 43.551928 L 337.729682 43.551928 L 337.729682 16.528693 L 386.753009 16.528693 Z M 439.082709 71.338172 L 453.293751 71.338172 L 453.293751 101.635987 C 453.293751 104.115766 451.131892 106.023289 448.652113 106.023289 L 428.368791 106.023289 C 426.079764 106.023289 424.140449 104.115766 424.140449 101.794947 L 424.140449 21.106747 C 424.140449 18.626968 426.079764 16.528693 428.559543 16.528693 L 448.493153 16.528693 C 451.131892 16.528693 453.293751 18.626968 453.293751 21.329292 L 453.293751 28.037412 L 480.85745 28.037412 L 480.85745 21.329292 C 480.85745 3.334996 466.296696 -11.09859 448.493153 -11.09859 L 428.559543 -11.09859 C 410.724208 -11.09859 396.354206 3.334996 396.354206 21.106747 L 396.354206 101.794947 C 396.354206 119.43953 410.724208 133.809532 428.368791 133.809532 L 448.652113 133.809532 C 466.487448 133.809532 480.85745 119.248778 480.85745 101.635987 L 481.048203 43.551928 L 439.082709 43.551928 Z M 565.773992 75.757266 C 565.583239 68.445096 563.071668 61.578015 558.652574 56.20516 C 564.406934 49.306288 567.681514 40.4681 567.681514 30.517191 C 567.681514 7.91305 550.79994 -8.968523 527.051286 -10.907838 L 490.649399 -10.653502 L 490.649399 134.191037 L 518.435643 134.191037 L 518.435643 71.719676 L 533.600446 71.719676 C 536.080225 71.719676 537.987748 73.658991 537.987748 75.948018 L 538.369252 134.191037 L 565.964744 134.191037 Z M 522.44144 43.933433 L 518.626395 43.933433 L 518.626395 16.719446 L 522.44144 16.719446 C 525.302724 16.719446 539.89527 17.514247 539.89527 30.517191 C 539.89527 42.947879 526.669781 43.933433 522.44144 43.933433 Z M 613.080548 105.101319 L 642.615354 105.101319 L 648.178962 133.809532 L 676.34671 133.809532 L 648.560466 -11.289342 L 634.381216 -11.289342 L 633.967919 -11.09859 L 627.832055 -11.09859 L 627.641303 -11.289342 L 613.462053 -11.289342 L 613.462053 -11.09859 L 577.250918 133.809532 L 605.990923 133.809532 Z M 629.739578 37.988321 L 637.2425 77.283284 L 619.979421 77.283284 Z M 751.089798 -11.289342 L 733.254463 25.748385 L 715.228376 -11.289342 L 685.916114 -11.289342 L 685.916114 133.809532 L 713.702358 133.809532 L 713.702358 48.702239 L 733.445215 89.173507 L 752.584024 49.49704 L 752.584024 133.809532 L 780.370268 133.809532 L 780.370268 -11.289342 Z M 751.089798 -11.289342 " stroke="#9538ef" stroke-width="5.509851" stroke-opacity="1" stroke-miterlimit="4"/></g></svg>