<svg xmlns="http://www.w3.org/2000/svg" xmlns:xlink="http://www.w3.org/1999/xlink" width="420" zoomAndPan="magnify" viewBox="0 0 315 314.999992" height="420" preserveAspectRatio="xMidYMid meet" version="1.0"><defs><clipPath id="491047f48d"><path d="M 42.644531 105.582031 L 114.644531 105.582031 L 114.644531 209.082031 L 42.644531 209.082031 Z M 42.644531 105.582031 " clip-rule="nonzero"/></clipPath></defs><path fill="#9538ef" d="M 105.933594 207.839844 L 51.675781 207.839844 C 47.554688 207.839844 44.214844 204.503906 44.214844 200.382812 L 44.214844 114.601562 C 44.214844 110.484375 47.554688 107.144531 51.675781 107.144531 L 105.933594 107.144531 C 110.050781 107.144531 113.390625 110.480469 113.390625 114.601562 L 113.390625 200.386719 C 113.390625 204.503906 110.054688 207.84375 105.933594 207.84375 Z M 105.933594 207.839844 " fill-opacity="1" fill-rule="nonzero"/><g clip-path="url(#491047f48d)"><path fill="#ffffff" d="M 105.933594 209.402344 L 51.675781 209.402344 C 46.703125 209.402344 42.65625 205.355469 42.65625 200.382812 L 42.65625 114.601562 C 42.65625 109.628906 46.703125 105.582031 51.675781 105.582031 L 105.933594 105.582031 C 110.90625 105.582031 114.953125 109.628906 114.953125 114.601562 L 114.953125 200.386719 C 114.953125 205.359375 110.90625 209.40625 105.933594 209.40625 Z M 51.675781 108.707031 C 48.425781 108.707031 45.777344 111.351562 45.777344 114.601562 L 45.777344 200.386719 C 45.777344 203.632812 48.421875 206.28125 51.675781 206.28125 L 105.933594 206.28125 C 109.183594 206.28125 111.828125 203.636719 111.828125 200.386719 L 111.828125 114.601562 C 111.828125 111.351562 109.1875 108.707031 105.933594 108.707031 Z M 61.496094 199.210938 C 57.851562 199.210938 54.582031 198.265625 51.839844 196.363281 C 45.929688 192.261719 43.3125 184.304688 44.472656 173.949219 C 45.59375 163.9375 50.125 152.78125 57.234375 142.53125 C 64.34375 132.28125 73.207031 124.128906 82.1875 119.570312 C 91.480469 114.855469 99.855469 114.515625 105.765625 118.617188 C 111.679688 122.71875 114.292969 130.679688 113.136719 141.035156 C 112.015625 151.042969 107.480469 162.203125 100.375 172.453125 C 93.265625 182.699219 84.402344 190.855469 75.417969 195.414062 C 70.433594 197.941406 65.710938 199.210938 61.496094 199.210938 Z M 96.097656 118.894531 C 92.378906 118.894531 88.140625 120.054688 83.601562 122.359375 C 75.074219 126.6875 66.621094 134.480469 59.800781 144.3125 C 52.980469 154.144531 48.636719 164.796875 47.574219 174.296875 C 46.546875 183.457031 48.695312 190.382812 53.621094 193.800781 C 58.542969 197.214844 65.78125 196.796875 74 192.628906 C 82.53125 188.300781 90.984375 180.503906 97.804688 170.675781 C 104.621094 160.84375 108.964844 150.191406 110.027344 140.691406 C 111.054688 131.53125 108.90625 124.605469 103.984375 121.1875 C 101.777344 119.65625 99.109375 118.894531 96.097656 118.894531 Z M 92.0625 135.699219 L 77.351562 139.636719 C 76.726562 139.808594 76.515625 140.589844 76.976562 141.050781 L 79.527344 143.605469 C 79.222656 143.832031 78.929688 144.082031 78.648438 144.363281 L 71.980469 151.03125 C 70.410156 152.597656 69.640625 154.664062 69.660156 156.742188 C 69.671875 158.8125 70.882812 160.496094 72.480469 162.089844 L 85.246094 149.324219 L 87.742188 151.816406 C 88.203125 152.277344 88.984375 152.066406 89.15625 151.4375 L 93.09375 136.730469 C 93.261719 136.101562 92.6875 135.53125 92.0625 135.699219 Z M 65.542969 179.289062 L 80.253906 175.347656 C 80.878906 175.179688 81.089844 174.394531 80.628906 173.933594 L 78.078125 171.382812 C 78.382812 171.152344 78.675781 170.902344 78.957031 170.621094 L 85.625 163.953125 C 87.191406 162.386719 87.964844 160.320312 87.945312 158.242188 C 87.929688 156.171875 86.722656 154.488281 85.125 152.894531 L 72.355469 165.660156 L 69.863281 163.167969 C 69.402344 162.707031 68.621094 162.917969 68.449219 163.546875 L 64.511719 178.253906 C 64.34375 178.882812 64.917969 179.453125 65.542969 179.289062 Z M 65.542969 179.289062 " fill-opacity="1" fill-rule="nonzero"/></g><path fill="#000000" d="M 72.480469 163.296875 L 71.878906 162.695312 C 70.457031 161.277344 68.824219 159.316406 68.808594 156.746094 C 68.785156 154.351562 69.695312 152.109375 71.378906 150.429688 L 78.046875 143.761719 C 78.117188 143.6875 78.191406 143.613281 78.265625 143.546875 L 76.371094 141.652344 C 75.9375 141.222656 75.773438 140.609375 75.933594 140.015625 C 76.089844 139.425781 76.539062 138.972656 77.132812 138.816406 L 91.84375 134.875 C 92.4375 134.71875 93.050781 134.882812 93.484375 135.316406 C 93.914062 135.75 94.078125 136.363281 93.921875 136.953125 L 89.980469 151.65625 C 89.820312 152.25 89.371094 152.699219 88.777344 152.859375 C 88.1875 153.015625 87.574219 152.851562 87.140625 152.417969 L 85.253906 150.53125 Z M 92.273438 136.507812 L 77.574219 140.460938 L 80.832031 143.699219 L 80.035156 144.289062 C 79.765625 144.488281 79.5 144.71875 79.253906 144.964844 L 72.585938 151.632812 C 71.230469 152.988281 70.496094 154.796875 70.511719 156.734375 C 70.519531 158.097656 71.121094 159.363281 72.492188 160.875 L 85.25 148.117188 L 88.347656 151.210938 L 92.277344 136.503906 Z M 65.320312 180.167969 C 64.878906 180.167969 64.449219 179.992188 64.125 179.667969 C 63.691406 179.234375 63.527344 178.621094 63.6875 178.03125 L 67.625 163.324219 C 67.789062 162.730469 68.238281 162.28125 68.832031 162.121094 C 69.421875 161.964844 70.035156 162.128906 70.464844 162.5625 L 72.355469 164.453125 L 85.121094 151.683594 L 85.726562 152.285156 C 87.144531 153.707031 88.777344 155.664062 88.792969 158.234375 C 88.816406 160.628906 87.90625 162.871094 86.226562 164.554688 L 79.554688 171.222656 C 79.484375 171.296875 79.410156 171.367188 79.335938 171.433594 L 81.230469 173.328125 C 81.664062 173.761719 81.824219 174.375 81.667969 174.964844 C 81.511719 175.554688 81.066406 176.007812 80.472656 176.167969 L 65.761719 180.109375 C 65.613281 180.148438 65.460938 180.167969 65.3125 180.167969 Z M 69.261719 163.769531 L 65.332031 178.476562 L 80.03125 174.523438 L 76.773438 171.285156 L 77.570312 170.695312 C 77.839844 170.496094 78.105469 170.269531 78.351562 170.019531 L 85.019531 163.351562 C 86.375 161.996094 87.109375 160.1875 87.089844 158.253906 C 87.082031 156.890625 86.480469 155.621094 85.109375 154.113281 L 72.351562 166.867188 L 69.257812 163.773438 Z M 69.261719 163.769531 " fill-opacity="1" fill-rule="nonzero"/><path stroke-linecap="butt" transform="matrix(0.43433, 0, 0, 0.43433, 105.072566, 95.409296)" fill="none" stroke-linejoin="miter" d="M 102.739198 -11.276158 L 84.913623 25.733046 L 66.899179 -11.276158 L 37.561628 -11.276158 L 37.561628 133.810715 L 65.352257 133.810715 L 65.352257 48.703036 L 85.102491 89.174826 L 104.232158 49.503478 L 104.232158 133.810715 L 132.022787 133.810715 L 132.022787 -11.276158 Z M 218.443551 -11.08729 L 141.619099 -11.276158 L 141.619099 133.810715 L 218.443551 133.810715 L 218.443551 106.020085 L 169.409728 106.020085 L 169.409728 71.349251 L 201.031688 71.349251 L 201.031688 43.558621 L 169.409728 43.558621 L 169.409728 16.514471 L 218.443551 16.514471 Z M 293.20844 -11.276158 L 275.382864 25.733046 L 257.377414 -11.276158 L 228.039863 -11.276158 L 228.039863 133.810715 L 255.830492 133.810715 L 255.830492 48.703036 L 275.571733 89.174826 L 294.710393 49.503478 L 294.710393 133.810715 L 322.501023 133.810715 L 322.501023 -11.276158 Z M 408.912793 -11.08729 L 332.08834 -11.276158 L 332.08834 133.810715 L 408.912793 133.810715 L 408.912793 106.020085 L 359.87897 106.020085 L 359.87897 71.349251 L 391.509923 71.349251 L 391.509923 43.558621 L 359.87897 43.558621 L 359.87897 16.514471 L 408.912793 16.514471 Z M 408.912793 -11.08729 " stroke="#9538ef" stroke-width="5.509851" stroke-opacity="1" stroke-miterlimit="4"/><path stroke-linecap="butt" transform="matrix(0.43433, 0, 0, 0.43433, 105.072566, 95.409296)" fill="none" stroke-linejoin="miter" d="M 73.950265 243.354362 L 88.178347 243.354362 L 88.178347 273.627261 C 88.178347 276.100538 86.019852 278.025196 83.546576 278.025196 L 63.238731 278.025196 C 60.945329 278.025196 59.029664 276.100538 59.029664 273.807136 L 59.029664 193.106385 C 59.029664 190.624115 60.945329 188.519582 63.427599 188.519582 L 83.357707 188.519582 C 86.019852 188.519582 88.178347 190.624115 88.178347 193.340222 L 88.178347 200.031558 L 115.73514 200.031558 L 115.73514 193.340222 C 115.73514 175.325778 101.183283 160.908827 83.357707 160.908827 L 63.427599 160.908827 C 45.602024 160.908827 31.230041 175.325778 31.230041 193.106385 L 31.230041 273.807136 C 31.230041 291.452837 45.602024 305.815826 63.238731 305.815826 L 83.546576 305.815826 C 101.372151 305.815826 115.73514 291.263969 115.73514 273.627261 L 115.915015 215.563732 L 73.950265 215.563732 Z M 200.653951 247.752297 C 200.465083 240.449387 197.937844 233.569182 193.53991 228.190931 C 199.295898 221.31972 202.569616 212.469889 202.569616 202.504834 C 202.569616 179.912581 185.679388 163.022354 161.91795 161.097696 L 125.511326 161.331533 L 125.511326 306.184569 L 153.301956 306.184569 L 153.301956 243.723105 L 168.465387 243.723105 C 170.947657 243.723105 172.863321 245.647763 172.863321 247.941165 L 173.241058 306.184569 L 200.842819 306.184569 Z M 157.331147 215.932475 L 153.490824 215.932475 L 153.490824 188.708451 L 157.331147 188.708451 C 160.18216 188.708451 174.778986 189.499899 174.778986 202.504834 C 174.778986 214.952159 161.540214 215.932475 157.331147 215.932475 Z M 247.969971 277.089848 L 277.487397 277.089848 L 283.054517 305.815826 L 311.222883 305.815826 L 283.432254 160.728953 L 269.258133 160.728953 L 268.835428 160.908827 L 262.701703 160.908827 L 262.521829 160.728953 L 248.338714 160.728953 L 248.338714 160.908827 L 212.129952 305.815826 L 240.85593 305.815826 Z M 264.626362 209.996613 L 272.109146 249.290225 L 254.841182 249.290225 Z M 385.951797 160.728953 L 368.126221 197.738157 L 350.111778 160.728953 L 320.78322 160.728953 L 320.78322 305.815826 L 348.57385 305.815826 L 348.57385 220.708147 L 368.31509 261.179937 L 387.45375 221.499595 L 387.45375 305.815826 L 415.24438 305.815826 L 415.24438 160.728953 Z M 385.951797 160.728953 " stroke="#9538ef" stroke-width="5.509851" stroke-opacity="1" stroke-miterlimit="4"/></svg>